<mxfile host="app.diagrams.net" modified="2021-08-13T09:41:30.239Z" agent="5.0 (X11; Linux x86_64) AppleWebKit/537.36 (KHTML, like Gecko) Chrome/92.0.4515.107 Safari/537.36" etag="MmPleKKpeQp4ePtzuyjh" version="14.9.6" type="github">
  <diagram id="C5RBs43oDa-KdzZeNtuy" name="Page-1">
    <mxGraphModel dx="2394" dy="1348" grid="1" gridSize="10" guides="1" tooltips="1" connect="1" arrows="1" fold="1" page="0" pageScale="1" pageWidth="827" pageHeight="1169" background="none" math="0" shadow="0">
      <root>
        <mxCell id="WIyWlLk6GJQsqaUBKTNV-0" />
        <mxCell id="WIyWlLk6GJQsqaUBKTNV-1" parent="WIyWlLk6GJQsqaUBKTNV-0" />
        <mxCell id="I4XHuj20KwNcoesYo0El-128" value="Local Avoidance States" style="swimlane;rounded=0;swimlaneFillColor=#FFE3E6;strokeColor=#b85450;gradientColor=#ffffff;fillColor=#F8590A;" vertex="1" parent="WIyWlLk6GJQsqaUBKTNV-1">
          <mxGeometry x="-90" y="790" width="320" height="170" as="geometry" />
        </mxCell>
        <mxCell id="I4XHuj20KwNcoesYo0El-131" value="" style="edgeStyle=orthogonalEdgeStyle;rounded=0;orthogonalLoop=1;jettySize=auto;html=1;" edge="1" parent="I4XHuj20KwNcoesYo0El-128" source="I4XHuj20KwNcoesYo0El-64" target="I4XHuj20KwNcoesYo0El-67">
          <mxGeometry relative="1" as="geometry" />
        </mxCell>
        <mxCell id="I4XHuj20KwNcoesYo0El-64" value="Send Stop to&amp;nbsp;&lt;br&gt;MBplanner&amp;nbsp;" style="rounded=1;whiteSpace=wrap;html=1;fontSize=12;glass=0;strokeWidth=1;shadow=0;" vertex="1" parent="I4XHuj20KwNcoesYo0El-128">
          <mxGeometry x="25" y="70.00000000000006" width="120" height="65" as="geometry" />
        </mxCell>
        <mxCell id="I4XHuj20KwNcoesYo0El-67" value="Activate Local avoidance Maneuver&amp;nbsp;" style="rounded=1;whiteSpace=wrap;html=1;fontSize=12;glass=0;strokeWidth=1;shadow=0;" vertex="1" parent="I4XHuj20KwNcoesYo0El-128">
          <mxGeometry x="175" y="70.00000000000006" width="120" height="65" as="geometry" />
        </mxCell>
        <mxCell id="I4XHuj20KwNcoesYo0El-136" value="Object Detection States" style="swimlane;rounded=0;gradientColor=#FFF2CC;swimlaneFillColor=#CCE5FF;fillColor=#007FFF;" vertex="1" parent="WIyWlLk6GJQsqaUBKTNV-1">
          <mxGeometry x="470" y="850" width="520" height="135" as="geometry" />
        </mxCell>
        <mxCell id="I4XHuj20KwNcoesYo0El-61" value="Detected&lt;br&gt;&amp;nbsp;Classes are in our dictionary?&amp;nbsp;" style="rhombus;whiteSpace=wrap;html=1;shadow=0;fontFamily=Helvetica;fontSize=12;align=center;strokeWidth=1;spacing=6;spacingTop=-4;" vertex="1" parent="I4XHuj20KwNcoesYo0El-136">
          <mxGeometry x="215" y="32.50000000000006" width="115" height="90" as="geometry" />
        </mxCell>
        <mxCell id="I4XHuj20KwNcoesYo0El-91" value="" style="edgeStyle=orthogonalEdgeStyle;rounded=0;orthogonalLoop=1;jettySize=auto;html=1;" edge="1" parent="I4XHuj20KwNcoesYo0El-136" source="I4XHuj20KwNcoesYo0El-85" target="I4XHuj20KwNcoesYo0El-61">
          <mxGeometry relative="1" as="geometry" />
        </mxCell>
        <mxCell id="I4XHuj20KwNcoesYo0El-85" value="Local Explore &lt;br&gt;&amp;amp; Filter&lt;br&gt;Bounding Box&amp;nbsp;" style="rounded=1;whiteSpace=wrap;html=1;fontSize=12;glass=0;strokeWidth=1;shadow=0;arcSize=28;" vertex="1" parent="I4XHuj20KwNcoesYo0El-136">
          <mxGeometry x="40" y="45.00000000000006" width="120" height="65" as="geometry" />
        </mxCell>
        <mxCell id="I4XHuj20KwNcoesYo0El-96" value="Register Object&amp;nbsp;" style="whiteSpace=wrap;html=1;shadow=0;strokeWidth=1;spacing=6;spacingTop=-4;" vertex="1" parent="I4XHuj20KwNcoesYo0El-136">
          <mxGeometry x="370" y="47.50000000000006" width="120" height="60" as="geometry" />
        </mxCell>
        <mxCell id="I4XHuj20KwNcoesYo0El-97" value="" style="edgeStyle=orthogonalEdgeStyle;rounded=0;orthogonalLoop=1;jettySize=auto;html=1;" edge="1" parent="I4XHuj20KwNcoesYo0El-136" source="I4XHuj20KwNcoesYo0El-61" target="I4XHuj20KwNcoesYo0El-96">
          <mxGeometry relative="1" as="geometry" />
        </mxCell>
        <mxCell id="I4XHuj20KwNcoesYo0El-133" style="edgeStyle=orthogonalEdgeStyle;rounded=0;orthogonalLoop=1;jettySize=auto;html=1;exitX=0;exitY=0.75;exitDx=0;exitDy=0;entryX=0.5;entryY=0;entryDx=0;entryDy=0;gradientColor=#97d077;fillColor=#d5e8d4;strokeColor=#82b366;endSize=6;strokeWidth=3;" edge="1" parent="WIyWlLk6GJQsqaUBKTNV-1" source="I4XHuj20KwNcoesYo0El-127" target="I4XHuj20KwNcoesYo0El-129">
          <mxGeometry relative="1" as="geometry" />
        </mxCell>
        <mxCell id="I4XHuj20KwNcoesYo0El-127" value="Exploration States" style="swimlane;rounded=0;fillColor=#FFF2CC;gradientColor=#FFF2CC;swimlaneFillColor=#EAFFE9;" vertex="1" parent="WIyWlLk6GJQsqaUBKTNV-1">
          <mxGeometry x="110" y="215.62" width="640" height="474.38" as="geometry" />
        </mxCell>
        <mxCell id="I4XHuj20KwNcoesYo0El-118" value="If time out &lt;br&gt;reached" style="rhombus;whiteSpace=wrap;html=1;shadow=0;fontFamily=Helvetica;fontSize=12;align=center;strokeWidth=1;spacing=6;spacingTop=-4;" vertex="1" parent="I4XHuj20KwNcoesYo0El-127">
          <mxGeometry x="220" y="279.38" width="120" height="70.62" as="geometry" />
        </mxCell>
        <mxCell id="I4XHuj20KwNcoesYo0El-154" value="If Global map&amp;nbsp;&lt;br&gt;is explored enough&amp;nbsp;" style="rhombus;whiteSpace=wrap;html=1;shadow=0;fontFamily=Helvetica;fontSize=12;align=center;strokeWidth=1;spacing=6;spacingTop=-4;" vertex="1" parent="I4XHuj20KwNcoesYo0El-127">
          <mxGeometry x="205" y="364.38" width="145" height="85.62" as="geometry" />
        </mxCell>
        <mxCell id="I4XHuj20KwNcoesYo0El-39" value="" style="shape=process;whiteSpace=wrap;html=1;backgroundOutline=1;" vertex="1" parent="WIyWlLk6GJQsqaUBKTNV-1">
          <mxGeometry x="-390" y="-250" width="1150" height="380" as="geometry" />
        </mxCell>
        <mxCell id="I4XHuj20KwNcoesYo0El-1" style="edgeStyle=orthogonalEdgeStyle;rounded=0;orthogonalLoop=1;jettySize=auto;html=1;" edge="1" parent="WIyWlLk6GJQsqaUBKTNV-1" source="WIyWlLk6GJQsqaUBKTNV-3" target="I4XHuj20KwNcoesYo0El-0">
          <mxGeometry relative="1" as="geometry" />
        </mxCell>
        <mxCell id="WIyWlLk6GJQsqaUBKTNV-3" value="Initialize mavros&amp;nbsp;" style="rounded=1;whiteSpace=wrap;html=1;fontSize=12;glass=0;strokeWidth=1;shadow=0;" parent="WIyWlLk6GJQsqaUBKTNV-1" vertex="1">
          <mxGeometry x="20" y="20" width="70" height="40" as="geometry" />
        </mxCell>
        <mxCell id="I4XHuj20KwNcoesYo0El-0" value="Initialize offboard" style="rounded=1;whiteSpace=wrap;html=1;fontSize=12;glass=0;strokeWidth=1;shadow=0;" vertex="1" parent="WIyWlLk6GJQsqaUBKTNV-1">
          <mxGeometry x="140" y="20" width="120" height="40" as="geometry" />
        </mxCell>
        <mxCell id="I4XHuj20KwNcoesYo0El-6" value="" style="edgeStyle=orthogonalEdgeStyle;rounded=0;orthogonalLoop=1;jettySize=auto;html=1;exitX=1;exitY=0.5;exitDx=0;exitDy=0;entryX=0;entryY=0.5;entryDx=0;entryDy=0;" edge="1" parent="WIyWlLk6GJQsqaUBKTNV-1" source="I4XHuj20KwNcoesYo0El-0" target="I4XHuj20KwNcoesYo0El-5">
          <mxGeometry relative="1" as="geometry">
            <mxPoint x="210.00000000000023" y="-140" as="sourcePoint" />
          </mxGeometry>
        </mxCell>
        <mxCell id="I4XHuj20KwNcoesYo0El-7" value="Fused Odom&amp;nbsp;" style="edgeLabel;html=1;align=center;verticalAlign=middle;resizable=0;points=[];" vertex="1" connectable="0" parent="I4XHuj20KwNcoesYo0El-6">
          <mxGeometry x="-0.1847" y="-1" relative="1" as="geometry">
            <mxPoint x="-31" y="-12" as="offset" />
          </mxGeometry>
        </mxCell>
        <mxCell id="I4XHuj20KwNcoesYo0El-5" value="Initialize &lt;br&gt;Voxblox Map&amp;nbsp;" style="rounded=1;whiteSpace=wrap;html=1;fontSize=12;glass=0;strokeWidth=1;shadow=0;" vertex="1" parent="WIyWlLk6GJQsqaUBKTNV-1">
          <mxGeometry x="320" y="-160" width="120" height="40" as="geometry" />
        </mxCell>
        <mxCell id="I4XHuj20KwNcoesYo0El-17" value="Initialize Global Planner&amp;nbsp;" style="rounded=1;whiteSpace=wrap;html=1;fontSize=12;glass=0;strokeWidth=1;shadow=0;" vertex="1" parent="WIyWlLk6GJQsqaUBKTNV-1">
          <mxGeometry x="320" y="-90" width="120" height="40" as="geometry" />
        </mxCell>
        <mxCell id="I4XHuj20KwNcoesYo0El-18" value="Initialize Local Planner&amp;nbsp;" style="rounded=1;whiteSpace=wrap;html=1;fontSize=12;glass=0;strokeWidth=1;shadow=0;" vertex="1" parent="WIyWlLk6GJQsqaUBKTNV-1">
          <mxGeometry x="320" y="-20" width="120" height="40" as="geometry" />
        </mxCell>
        <mxCell id="I4XHuj20KwNcoesYo0El-19" value="Initialize Realsense-ROS" style="rounded=1;whiteSpace=wrap;html=1;fontSize=12;glass=0;strokeWidth=1;shadow=0;" vertex="1" parent="WIyWlLk6GJQsqaUBKTNV-1">
          <mxGeometry x="-240" y="-80" width="120" height="40" as="geometry" />
        </mxCell>
        <mxCell id="I4XHuj20KwNcoesYo0El-21" value="" style="edgeStyle=orthogonalEdgeStyle;rounded=0;orthogonalLoop=1;jettySize=auto;html=1;exitX=1;exitY=0.5;exitDx=0;exitDy=0;entryX=0;entryY=0.5;entryDx=0;entryDy=0;" edge="1" parent="WIyWlLk6GJQsqaUBKTNV-1" source="I4XHuj20KwNcoesYo0El-0" target="I4XHuj20KwNcoesYo0El-17">
          <mxGeometry relative="1" as="geometry">
            <mxPoint x="210.00000000000023" y="-140" as="sourcePoint" />
            <mxPoint x="330" y="-130" as="targetPoint" />
          </mxGeometry>
        </mxCell>
        <mxCell id="I4XHuj20KwNcoesYo0El-23" value="" style="edgeStyle=orthogonalEdgeStyle;rounded=0;orthogonalLoop=1;jettySize=auto;html=1;entryX=0;entryY=0.5;entryDx=0;entryDy=0;" edge="1" parent="WIyWlLk6GJQsqaUBKTNV-1" source="I4XHuj20KwNcoesYo0El-0" target="I4XHuj20KwNcoesYo0El-18">
          <mxGeometry relative="1" as="geometry">
            <mxPoint x="265" y="40" as="sourcePoint" />
            <mxPoint x="330" y="-60" as="targetPoint" />
          </mxGeometry>
        </mxCell>
        <mxCell id="I4XHuj20KwNcoesYo0El-24" style="edgeStyle=orthogonalEdgeStyle;rounded=0;orthogonalLoop=1;jettySize=auto;html=1;entryX=0;entryY=0.5;entryDx=0;entryDy=0;" edge="1" parent="WIyWlLk6GJQsqaUBKTNV-1" source="I4XHuj20KwNcoesYo0El-19" target="I4XHuj20KwNcoesYo0El-26">
          <mxGeometry relative="1" as="geometry">
            <mxPoint x="-120" y="-59.999999999999886" as="sourcePoint" />
            <mxPoint x="-30" y="-60" as="targetPoint" />
          </mxGeometry>
        </mxCell>
        <mxCell id="I4XHuj20KwNcoesYo0El-26" value="Initialize VIO" style="rounded=1;whiteSpace=wrap;html=1;fontSize=12;glass=0;strokeWidth=1;shadow=0;" vertex="1" parent="WIyWlLk6GJQsqaUBKTNV-1">
          <mxGeometry x="-5" y="-80" width="120" height="40" as="geometry" />
        </mxCell>
        <mxCell id="I4XHuj20KwNcoesYo0El-30" value="Initialize Yolo Detector" style="rounded=1;whiteSpace=wrap;html=1;fontSize=12;glass=0;strokeWidth=1;shadow=0;" vertex="1" parent="WIyWlLk6GJQsqaUBKTNV-1">
          <mxGeometry y="-150" width="120" height="40" as="geometry" />
        </mxCell>
        <mxCell id="I4XHuj20KwNcoesYo0El-31" style="edgeStyle=orthogonalEdgeStyle;rounded=0;orthogonalLoop=1;jettySize=auto;html=1;exitX=1;exitY=0.5;exitDx=0;exitDy=0;entryX=0;entryY=0.5;entryDx=0;entryDy=0;" edge="1" parent="WIyWlLk6GJQsqaUBKTNV-1" source="I4XHuj20KwNcoesYo0El-19" target="I4XHuj20KwNcoesYo0El-30">
          <mxGeometry relative="1" as="geometry">
            <mxPoint x="-110" y="-50.000000000000114" as="sourcePoint" />
            <mxPoint x="10" y="-100" as="targetPoint" />
          </mxGeometry>
        </mxCell>
        <mxCell id="I4XHuj20KwNcoesYo0El-32" style="edgeStyle=orthogonalEdgeStyle;rounded=0;orthogonalLoop=1;jettySize=auto;html=1;entryX=0.5;entryY=0;entryDx=0;entryDy=0;exitX=0.5;exitY=1;exitDx=0;exitDy=0;" edge="1" parent="WIyWlLk6GJQsqaUBKTNV-1" source="I4XHuj20KwNcoesYo0El-26" target="WIyWlLk6GJQsqaUBKTNV-3">
          <mxGeometry relative="1" as="geometry">
            <mxPoint x="220" y="-37" as="sourcePoint" />
            <mxPoint x="180" y="50" as="targetPoint" />
          </mxGeometry>
        </mxCell>
        <mxCell id="I4XHuj20KwNcoesYo0El-36" value="" style="edgeStyle=orthogonalEdgeStyle;rounded=0;orthogonalLoop=1;jettySize=auto;html=1;entryX=0;entryY=0.5;entryDx=0;entryDy=0;exitX=1;exitY=0.5;exitDx=0;exitDy=0;" edge="1" parent="WIyWlLk6GJQsqaUBKTNV-1" source="I4XHuj20KwNcoesYo0El-18" target="I4XHuj20KwNcoesYo0El-38">
          <mxGeometry relative="1" as="geometry">
            <mxPoint x="530" y="-60" as="sourcePoint" />
            <mxPoint x="619.9999999999998" y="-50.000000000000114" as="targetPoint" />
          </mxGeometry>
        </mxCell>
        <mxCell id="I4XHuj20KwNcoesYo0El-38" value="Initialize &lt;br&gt;HMCL &lt;br&gt;State Machine&amp;nbsp;" style="rounded=1;whiteSpace=wrap;html=1;fontSize=12;glass=0;strokeWidth=1;shadow=0;" vertex="1" parent="WIyWlLk6GJQsqaUBKTNV-1">
          <mxGeometry x="510" y="-30" width="120" height="60" as="geometry" />
        </mxCell>
        <mxCell id="I4XHuj20KwNcoesYo0El-48" value="" style="edgeStyle=orthogonalEdgeStyle;rounded=0;orthogonalLoop=1;jettySize=auto;html=1;" edge="1" parent="WIyWlLk6GJQsqaUBKTNV-1" source="I4XHuj20KwNcoesYo0El-40" target="I4XHuj20KwNcoesYo0El-45">
          <mxGeometry relative="1" as="geometry" />
        </mxCell>
        <mxCell id="I4XHuj20KwNcoesYo0El-40" value="Initialize Mapping" style="rounded=1;whiteSpace=wrap;html=1;fontSize=12;glass=0;strokeWidth=1;shadow=0;" vertex="1" parent="WIyWlLk6GJQsqaUBKTNV-1">
          <mxGeometry x="-440" y="367.5" width="120" height="40" as="geometry" />
        </mxCell>
        <mxCell id="I4XHuj20KwNcoesYo0El-55" value="" style="edgeStyle=orthogonalEdgeStyle;rounded=0;orthogonalLoop=1;jettySize=auto;html=1;entryX=0.008;entryY=0.588;entryDx=0;entryDy=0;entryPerimeter=0;" edge="1" parent="WIyWlLk6GJQsqaUBKTNV-1" source="I4XHuj20KwNcoesYo0El-43" target="I4XHuj20KwNcoesYo0El-54">
          <mxGeometry relative="1" as="geometry" />
        </mxCell>
        <mxCell id="I4XHuj20KwNcoesYo0El-43" value="Take off&amp;nbsp;" style="rounded=1;whiteSpace=wrap;html=1;fontSize=12;glass=0;strokeWidth=1;shadow=0;" vertex="1" parent="WIyWlLk6GJQsqaUBKTNV-1">
          <mxGeometry x="-130" y="367.5" width="120" height="40" as="geometry" />
        </mxCell>
        <mxCell id="I4XHuj20KwNcoesYo0El-52" style="edgeStyle=orthogonalEdgeStyle;rounded=0;orthogonalLoop=1;jettySize=auto;html=1;entryX=0;entryY=0.5;entryDx=0;entryDy=0;" edge="1" parent="WIyWlLk6GJQsqaUBKTNV-1" source="I4XHuj20KwNcoesYo0El-45" target="I4XHuj20KwNcoesYo0El-43">
          <mxGeometry relative="1" as="geometry">
            <mxPoint x="-130" y="387.5" as="targetPoint" />
          </mxGeometry>
        </mxCell>
        <mxCell id="I4XHuj20KwNcoesYo0El-45" value="Map Calibration&amp;nbsp;&lt;br&gt;before Take off&lt;br&gt;using 2D Lidar&amp;nbsp;" style="rounded=1;whiteSpace=wrap;html=1;fontSize=12;glass=0;strokeWidth=1;shadow=0;" vertex="1" parent="WIyWlLk6GJQsqaUBKTNV-1">
          <mxGeometry x="-280" y="362.5" width="120" height="50" as="geometry" />
        </mxCell>
        <mxCell id="I4XHuj20KwNcoesYo0El-103" value="" style="edgeStyle=orthogonalEdgeStyle;rounded=0;orthogonalLoop=1;jettySize=auto;html=1;entryX=0;entryY=0.5;entryDx=0;entryDy=0;" edge="1" parent="WIyWlLk6GJQsqaUBKTNV-1" source="I4XHuj20KwNcoesYo0El-54" target="I4XHuj20KwNcoesYo0El-104">
          <mxGeometry relative="1" as="geometry">
            <mxPoint x="219.99999999999977" y="522.5000000000002" as="targetPoint" />
          </mxGeometry>
        </mxCell>
        <mxCell id="I4XHuj20KwNcoesYo0El-54" value="Exploration Start&amp;nbsp;&lt;br&gt;(send service to MBplanner)&amp;nbsp;" style="rounded=1;whiteSpace=wrap;html=1;fontSize=12;glass=0;strokeWidth=1;shadow=0;" vertex="1" parent="WIyWlLk6GJQsqaUBKTNV-1">
          <mxGeometry x="140" y="413.12" width="120" height="65" as="geometry" />
        </mxCell>
        <mxCell id="I4XHuj20KwNcoesYo0El-108" value="" style="edgeStyle=orthogonalEdgeStyle;rounded=0;orthogonalLoop=1;jettySize=auto;html=1;entryX=0;entryY=0.5;entryDx=0;entryDy=0;" edge="1" parent="WIyWlLk6GJQsqaUBKTNV-1" source="I4XHuj20KwNcoesYo0El-104" target="I4XHuj20KwNcoesYo0El-110">
          <mxGeometry relative="1" as="geometry">
            <mxPoint x="539.9999999999998" y="442.5" as="targetPoint" />
          </mxGeometry>
        </mxCell>
        <mxCell id="I4XHuj20KwNcoesYo0El-104" value="If Sampling method cannot find &lt;br&gt;any safe path&amp;nbsp;" style="shape=parallelogram;perimeter=parallelogramPerimeter;whiteSpace=wrap;html=1;fixedSize=1;" vertex="1" parent="WIyWlLk6GJQsqaUBKTNV-1">
          <mxGeometry x="320" y="415.62" width="140" height="60" as="geometry" />
        </mxCell>
        <mxCell id="I4XHuj20KwNcoesYo0El-113" value="" style="edgeStyle=orthogonalEdgeStyle;rounded=0;orthogonalLoop=1;jettySize=auto;html=1;entryX=1;entryY=0.5;entryDx=0;entryDy=0;" edge="1" parent="WIyWlLk6GJQsqaUBKTNV-1" source="I4XHuj20KwNcoesYo0El-110" target="I4XHuj20KwNcoesYo0El-111">
          <mxGeometry relative="1" as="geometry">
            <Array as="points">
              <mxPoint x="590" y="283" />
            </Array>
          </mxGeometry>
        </mxCell>
        <mxCell id="I4XHuj20KwNcoesYo0El-123" style="edgeStyle=orthogonalEdgeStyle;rounded=0;orthogonalLoop=1;jettySize=auto;html=1;entryX=0;entryY=0.25;entryDx=0;entryDy=0;" edge="1" parent="WIyWlLk6GJQsqaUBKTNV-1" source="I4XHuj20KwNcoesYo0El-110" target="I4XHuj20KwNcoesYo0El-122">
          <mxGeometry relative="1" as="geometry" />
        </mxCell>
        <mxCell id="I4XHuj20KwNcoesYo0El-110" value="If we have &lt;br&gt;global waypoints &lt;br&gt;with frontier flag on" style="rhombus;whiteSpace=wrap;html=1;shadow=0;fontFamily=Helvetica;fontSize=12;align=center;strokeWidth=1;spacing=6;spacingTop=-4;" vertex="1" parent="WIyWlLk6GJQsqaUBKTNV-1">
          <mxGeometry x="510" y="386.25" width="160" height="118.75" as="geometry" />
        </mxCell>
        <mxCell id="I4XHuj20KwNcoesYo0El-111" value="Go to way points using Global Planner" style="rounded=1;whiteSpace=wrap;html=1;fontSize=12;glass=0;strokeWidth=1;shadow=0;" vertex="1" parent="WIyWlLk6GJQsqaUBKTNV-1">
          <mxGeometry x="320" y="250" width="120" height="65" as="geometry" />
        </mxCell>
        <mxCell id="I4XHuj20KwNcoesYo0El-115" value="" style="edgeStyle=orthogonalEdgeStyle;rounded=0;orthogonalLoop=1;jettySize=auto;html=1;exitX=0;exitY=0.5;exitDx=0;exitDy=0;" edge="1" parent="WIyWlLk6GJQsqaUBKTNV-1" source="I4XHuj20KwNcoesYo0El-111" target="I4XHuj20KwNcoesYo0El-54">
          <mxGeometry relative="1" as="geometry">
            <mxPoint x="400.00000000000045" y="365.31000000000034" as="sourcePoint" />
            <mxPoint x="340" y="264.69" as="targetPoint" />
          </mxGeometry>
        </mxCell>
        <mxCell id="I4XHuj20KwNcoesYo0El-116" value="" style="edgeStyle=orthogonalEdgeStyle;rounded=0;orthogonalLoop=1;jettySize=auto;html=1;exitX=0.5;exitY=1;exitDx=0;exitDy=0;entryX=0;entryY=0.5;entryDx=0;entryDy=0;" edge="1" parent="WIyWlLk6GJQsqaUBKTNV-1" source="I4XHuj20KwNcoesYo0El-54" target="I4XHuj20KwNcoesYo0El-118">
          <mxGeometry relative="1" as="geometry">
            <mxPoint x="270" y="455.6199999999999" as="sourcePoint" />
            <mxPoint x="280" y="580" as="targetPoint" />
          </mxGeometry>
        </mxCell>
        <mxCell id="I4XHuj20KwNcoesYo0El-124" style="edgeStyle=orthogonalEdgeStyle;rounded=0;orthogonalLoop=1;jettySize=auto;html=1;entryX=-0.006;entryY=0.662;entryDx=0;entryDy=0;entryPerimeter=0;exitX=1;exitY=0.5;exitDx=0;exitDy=0;" edge="1" parent="WIyWlLk6GJQsqaUBKTNV-1" source="I4XHuj20KwNcoesYo0El-118" target="I4XHuj20KwNcoesYo0El-122">
          <mxGeometry relative="1" as="geometry">
            <Array as="points">
              <mxPoint x="720" y="530" />
              <mxPoint x="720" y="496" />
            </Array>
          </mxGeometry>
        </mxCell>
        <mxCell id="I4XHuj20KwNcoesYo0El-122" value="Homing" style="rounded=1;whiteSpace=wrap;html=1;fontSize=12;glass=0;strokeWidth=1;shadow=0;" vertex="1" parent="WIyWlLk6GJQsqaUBKTNV-1">
          <mxGeometry x="790" y="430" width="60" height="100" as="geometry" />
        </mxCell>
        <mxCell id="I4XHuj20KwNcoesYo0El-135" style="edgeStyle=orthogonalEdgeStyle;rounded=0;orthogonalLoop=1;jettySize=auto;html=1;entryX=0;entryY=0.75;entryDx=0;entryDy=0;exitX=0.5;exitY=1;exitDx=0;exitDy=0;gradientColor=#97d077;fillColor=#d5e8d4;strokeColor=#82b366;endSize=6;strokeWidth=3;" edge="1" parent="WIyWlLk6GJQsqaUBKTNV-1" source="I4XHuj20KwNcoesYo0El-67" target="I4XHuj20KwNcoesYo0El-54">
          <mxGeometry relative="1" as="geometry">
            <mxPoint x="335" y="875" as="sourcePoint" />
            <mxPoint x="520" y="660" as="targetPoint" />
            <Array as="points">
              <mxPoint x="145" y="970" />
              <mxPoint x="-180" y="970" />
              <mxPoint x="-180" y="462" />
            </Array>
          </mxGeometry>
        </mxCell>
        <mxCell id="I4XHuj20KwNcoesYo0El-150" style="edgeStyle=orthogonalEdgeStyle;rounded=0;orthogonalLoop=1;jettySize=auto;html=1;entryX=0;entryY=0.5;entryDx=0;entryDy=0;strokeColor=#b85450;fillColor=#f8cecc;strokeWidth=2;" edge="1" parent="WIyWlLk6GJQsqaUBKTNV-1" source="I4XHuj20KwNcoesYo0El-128" target="I4XHuj20KwNcoesYo0El-76">
          <mxGeometry relative="1" as="geometry">
            <Array as="points">
              <mxPoint x="280" y="880" />
              <mxPoint x="280" y="880" />
            </Array>
          </mxGeometry>
        </mxCell>
        <mxCell id="I4XHuj20KwNcoesYo0El-129" value="If local avoidance&amp;nbsp;&lt;br&gt;activated&amp;nbsp;&lt;br&gt;(based on Lidar)&amp;nbsp;" style="shape=parallelogram;perimeter=parallelogramPerimeter;whiteSpace=wrap;html=1;fixedSize=1;" vertex="1" parent="WIyWlLk6GJQsqaUBKTNV-1">
          <mxGeometry x="-21.25" y="700" width="152.5" height="60" as="geometry" />
        </mxCell>
        <mxCell id="I4XHuj20KwNcoesYo0El-76" value="&lt;span&gt;If Bounding box&lt;/span&gt;&lt;br&gt;&lt;span&gt;is detected&amp;nbsp;&lt;/span&gt;" style="shape=parallelogram;perimeter=parallelogramPerimeter;whiteSpace=wrap;html=1;fixedSize=1;" vertex="1" parent="WIyWlLk6GJQsqaUBKTNV-1">
          <mxGeometry x="290" y="850" width="120" height="60" as="geometry" />
        </mxCell>
        <mxCell id="I4XHuj20KwNcoesYo0El-155" value="" style="edgeStyle=orthogonalEdgeStyle;rounded=0;orthogonalLoop=1;jettySize=auto;html=1;exitX=0.5;exitY=1;exitDx=0;exitDy=0;entryX=0;entryY=0.5;entryDx=0;entryDy=0;" edge="1" parent="WIyWlLk6GJQsqaUBKTNV-1" source="I4XHuj20KwNcoesYo0El-54" target="I4XHuj20KwNcoesYo0El-154">
          <mxGeometry relative="1" as="geometry">
            <mxPoint x="209.99999999999977" y="488.1199999999999" as="sourcePoint" />
            <mxPoint x="340" y="540.31" as="targetPoint" />
          </mxGeometry>
        </mxCell>
        <mxCell id="I4XHuj20KwNcoesYo0El-156" style="edgeStyle=orthogonalEdgeStyle;rounded=0;orthogonalLoop=1;jettySize=auto;html=1;exitX=1;exitY=0.5;exitDx=0;exitDy=0;entryX=0;entryY=0.83;entryDx=0;entryDy=0;entryPerimeter=0;" edge="1" parent="WIyWlLk6GJQsqaUBKTNV-1" source="I4XHuj20KwNcoesYo0El-154" target="I4XHuj20KwNcoesYo0El-122">
          <mxGeometry relative="1" as="geometry">
            <mxPoint x="459.94199162101177" y="540.2758620689656" as="sourcePoint" />
            <mxPoint x="780" y="520" as="targetPoint" />
            <Array as="points">
              <mxPoint x="730" y="623" />
              <mxPoint x="730" y="513" />
            </Array>
          </mxGeometry>
        </mxCell>
        <mxCell id="I4XHuj20KwNcoesYo0El-161" style="edgeStyle=orthogonalEdgeStyle;rounded=0;orthogonalLoop=1;jettySize=auto;html=1;exitX=0.5;exitY=1;exitDx=0;exitDy=0;gradientColor=#97d077;fillColor=#d5e8d4;strokeColor=#82b366;endSize=6;strokeWidth=3;" edge="1" parent="WIyWlLk6GJQsqaUBKTNV-1">
          <mxGeometry relative="1" as="geometry">
            <mxPoint x="55" y="770" as="sourcePoint" />
            <mxPoint x="54" y="790" as="targetPoint" />
            <Array as="points">
              <mxPoint x="55" y="760" />
              <mxPoint x="54" y="760" />
            </Array>
          </mxGeometry>
        </mxCell>
        <mxCell id="I4XHuj20KwNcoesYo0El-167" style="edgeStyle=orthogonalEdgeStyle;rounded=0;orthogonalLoop=1;jettySize=auto;html=1;exitX=0.5;exitY=1;exitDx=0;exitDy=0;fillColor=#f5f5f5;strokeColor=#666666;endSize=6;strokeWidth=3;" edge="1" parent="WIyWlLk6GJQsqaUBKTNV-1">
          <mxGeometry relative="1" as="geometry">
            <mxPoint x="81" y="769.97" as="sourcePoint" />
            <mxPoint x="80" y="789.97" as="targetPoint" />
            <Array as="points">
              <mxPoint x="81" y="759.97" />
              <mxPoint x="80" y="759.97" />
            </Array>
          </mxGeometry>
        </mxCell>
        <mxCell id="I4XHuj20KwNcoesYo0El-169" style="edgeStyle=orthogonalEdgeStyle;rounded=0;orthogonalLoop=1;jettySize=auto;html=1;exitX=0.5;exitY=1;exitDx=0;exitDy=0;fillColor=#f5f5f5;strokeColor=#666666;endSize=6;strokeWidth=3;entryX=1;entryY=0.5;entryDx=0;entryDy=0;" edge="1" parent="WIyWlLk6GJQsqaUBKTNV-1" source="I4XHuj20KwNcoesYo0El-122" target="I4XHuj20KwNcoesYo0El-129">
          <mxGeometry relative="1" as="geometry">
            <mxPoint x="116" y="779.97" as="sourcePoint" />
            <mxPoint x="114.99999999999977" y="799.97" as="targetPoint" />
            <Array as="points">
              <mxPoint x="820" y="730" />
            </Array>
          </mxGeometry>
        </mxCell>
        <mxCell id="I4XHuj20KwNcoesYo0El-170" style="edgeStyle=orthogonalEdgeStyle;rounded=0;orthogonalLoop=1;jettySize=auto;html=1;fillColor=#f5f5f5;strokeColor=#666666;endSize=6;strokeWidth=3;entryX=0.75;entryY=1;entryDx=0;entryDy=0;" edge="1" parent="WIyWlLk6GJQsqaUBKTNV-1" source="I4XHuj20KwNcoesYo0El-67" target="I4XHuj20KwNcoesYo0El-122">
          <mxGeometry relative="1" as="geometry">
            <mxPoint x="830" y="540" as="sourcePoint" />
            <mxPoint x="710" y="760" as="targetPoint" />
            <Array as="points">
              <mxPoint x="145" y="830" />
              <mxPoint x="835" y="830" />
            </Array>
          </mxGeometry>
        </mxCell>
        <mxCell id="I4XHuj20KwNcoesYo0El-171" style="edgeStyle=orthogonalEdgeStyle;rounded=0;orthogonalLoop=1;jettySize=auto;html=1;entryX=0.583;entryY=0.033;entryDx=0;entryDy=0;strokeColor=#82b366;fillColor=#d5e8d4;entryPerimeter=0;strokeWidth=3;" edge="1" parent="WIyWlLk6GJQsqaUBKTNV-1" target="I4XHuj20KwNcoesYo0El-76">
          <mxGeometry relative="1" as="geometry">
            <mxPoint x="360" y="740" as="sourcePoint" />
            <mxPoint x="310" y="890" as="targetPoint" />
            <Array as="points">
              <mxPoint x="360" y="690" />
            </Array>
          </mxGeometry>
        </mxCell>
        <mxCell id="I4XHuj20KwNcoesYo0El-172" style="edgeStyle=orthogonalEdgeStyle;rounded=0;orthogonalLoop=1;jettySize=auto;html=1;strokeColor=#b85450;fillColor=#f8cecc;strokeWidth=2;" edge="1" parent="WIyWlLk6GJQsqaUBKTNV-1" source="I4XHuj20KwNcoesYo0El-76">
          <mxGeometry relative="1" as="geometry">
            <mxPoint x="240" y="890" as="sourcePoint" />
            <mxPoint x="470" y="928" as="targetPoint" />
            <Array as="points">
              <mxPoint x="397" y="928" />
            </Array>
          </mxGeometry>
        </mxCell>
        <mxCell id="I4XHuj20KwNcoesYo0El-173" style="edgeStyle=orthogonalEdgeStyle;rounded=0;orthogonalLoop=1;jettySize=auto;html=1;entryX=1;entryY=0.75;entryDx=0;entryDy=0;strokeColor=#82b366;fillColor=#d5e8d4;exitX=1;exitY=0.5;exitDx=0;exitDy=0;strokeWidth=3;" edge="1" parent="WIyWlLk6GJQsqaUBKTNV-1" source="I4XHuj20KwNcoesYo0El-96" target="I4XHuj20KwNcoesYo0El-127">
          <mxGeometry relative="1" as="geometry">
            <mxPoint x="406.6666666666665" y="900" as="sourcePoint" />
            <mxPoint x="520" y="937.5" as="targetPoint" />
            <Array as="points">
              <mxPoint x="1010" y="928" />
              <mxPoint x="1010" y="571" />
            </Array>
          </mxGeometry>
        </mxCell>
        <mxCell id="I4XHuj20KwNcoesYo0El-174" style="edgeStyle=orthogonalEdgeStyle;rounded=0;orthogonalLoop=1;jettySize=auto;html=1;strokeColor=#82b366;fillColor=#d5e8d4;exitX=1;exitY=0.25;exitDx=0;exitDy=0;strokeWidth=3;" edge="1" parent="WIyWlLk6GJQsqaUBKTNV-1" source="I4XHuj20KwNcoesYo0El-76">
          <mxGeometry relative="1" as="geometry">
            <mxPoint x="406.6666666666665" y="900" as="sourcePoint" />
            <mxPoint x="470" y="890" as="targetPoint" />
            <Array as="points">
              <mxPoint x="405" y="890" />
            </Array>
          </mxGeometry>
        </mxCell>
      </root>
    </mxGraphModel>
  </diagram>
</mxfile>
